<mxfile host="app.diagrams.net" modified="2023-04-10T22:17:57.675Z" agent="5.0 (Windows NT 10.0; Win64; x64) AppleWebKit/537.36 (KHTML, like Gecko) Chrome/112.0.0.0 Safari/537.36" etag="IVsL7mnPXdzU8Sjhewaa" version="21.0.6" type="github">
  <diagram name="PÃ¡gina-1" id="M6gzNARVgDX_y7YfNX9-">
    <mxGraphModel dx="1195" dy="637" grid="1" gridSize="10" guides="1" tooltips="1" connect="1" arrows="1" fold="1" page="1" pageScale="1" pageWidth="827" pageHeight="1169" math="0" shadow="0">
      <root>
        <mxCell id="0" />
        <mxCell id="1" parent="0" />
        <mxCell id="v5yq_5Lv4ERzmlBER-ph-206" value="" style="group;movable=1;resizable=1;rotatable=1;deletable=1;editable=1;locked=0;connectable=1;" vertex="1" connectable="0" parent="1">
          <mxGeometry y="80" width="240" height="240" as="geometry" />
        </mxCell>
        <mxCell id="v5yq_5Lv4ERzmlBER-ph-113" value="Central de Atendimento I" style="rounded=0;whiteSpace=wrap;html=1;labelPosition=center;verticalLabelPosition=top;align=center;verticalAlign=bottom;container=0;movable=1;resizable=1;rotatable=1;deletable=1;editable=1;locked=0;connectable=1;" vertex="1" parent="v5yq_5Lv4ERzmlBER-ph-206">
          <mxGeometry width="240" height="240" as="geometry" />
        </mxCell>
        <mxCell id="v5yq_5Lv4ERzmlBER-ph-114" value="OPERADOR" style="rounded=0;whiteSpace=wrap;html=1;fontSize=5;fontStyle=1;fillColor=#808080;fontColor=#FFFFFF;strokeColor=#FFFFFF;strokeWidth=3;container=0;movable=1;resizable=1;rotatable=1;deletable=1;editable=1;locked=0;connectable=1;" vertex="1" parent="v5yq_5Lv4ERzmlBER-ph-206">
          <mxGeometry x="40" y="40" width="40" height="40" as="geometry" />
        </mxCell>
        <mxCell id="v5yq_5Lv4ERzmlBER-ph-115" value="OPERADOR" style="rounded=0;whiteSpace=wrap;html=1;fontSize=5;fontStyle=1;fillColor=#808080;fontColor=#FFFFFF;strokeColor=#FFFFFF;strokeWidth=3;container=0;movable=1;resizable=1;rotatable=1;deletable=1;editable=1;locked=0;connectable=1;" vertex="1" parent="v5yq_5Lv4ERzmlBER-ph-206">
          <mxGeometry x="80" y="40" width="40" height="40" as="geometry" />
        </mxCell>
        <mxCell id="v5yq_5Lv4ERzmlBER-ph-116" value="OPERADOR" style="rounded=0;whiteSpace=wrap;html=1;fontSize=5;fontStyle=1;fillColor=#dae8fc;strokeColor=#6c8ebf;strokeWidth=3;container=0;movable=1;resizable=1;rotatable=1;deletable=1;editable=1;locked=0;connectable=1;" vertex="1" parent="v5yq_5Lv4ERzmlBER-ph-206">
          <mxGeometry x="120" y="40" width="40" height="40" as="geometry" />
        </mxCell>
        <mxCell id="v5yq_5Lv4ERzmlBER-ph-117" value="OPERADOR" style="rounded=0;whiteSpace=wrap;html=1;fontSize=5;fontStyle=1;fillColor=#d5e8d4;strokeColor=#82b366;strokeWidth=3;container=0;movable=1;resizable=1;rotatable=1;deletable=1;editable=1;locked=0;connectable=1;" vertex="1" parent="v5yq_5Lv4ERzmlBER-ph-206">
          <mxGeometry x="160" y="40" width="40" height="40" as="geometry" />
        </mxCell>
        <mxCell id="v5yq_5Lv4ERzmlBER-ph-118" value="OPERADOR" style="rounded=0;whiteSpace=wrap;html=1;fontSize=5;fontStyle=1;fillColor=#dae8fc;strokeColor=#6c8ebf;strokeWidth=3;container=0;movable=1;resizable=1;rotatable=1;deletable=1;editable=1;locked=0;connectable=1;" vertex="1" parent="v5yq_5Lv4ERzmlBER-ph-206">
          <mxGeometry x="40" y="80" width="40" height="40" as="geometry" />
        </mxCell>
        <mxCell id="v5yq_5Lv4ERzmlBER-ph-119" value="OPERADOR" style="rounded=0;whiteSpace=wrap;html=1;fontSize=5;fontStyle=1;fillColor=#f8cecc;strokeColor=#b85450;strokeWidth=3;container=0;movable=1;resizable=1;rotatable=1;deletable=1;editable=1;locked=0;connectable=1;" vertex="1" parent="v5yq_5Lv4ERzmlBER-ph-206">
          <mxGeometry x="80" y="80" width="40" height="40" as="geometry" />
        </mxCell>
        <mxCell id="v5yq_5Lv4ERzmlBER-ph-120" value="OPERADOR" style="rounded=0;whiteSpace=wrap;html=1;fontSize=5;fontStyle=1;fillColor=#d5e8d4;strokeColor=#82b366;strokeWidth=3;container=0;movable=1;resizable=1;rotatable=1;deletable=1;editable=1;locked=0;connectable=1;" vertex="1" parent="v5yq_5Lv4ERzmlBER-ph-206">
          <mxGeometry x="120" y="80" width="40" height="40" as="geometry" />
        </mxCell>
        <mxCell id="v5yq_5Lv4ERzmlBER-ph-121" value="OPERADOR" style="rounded=0;whiteSpace=wrap;html=1;fontSize=5;fontStyle=1;fillColor=#d5e8d4;strokeColor=#82b366;strokeWidth=3;container=0;movable=1;resizable=1;rotatable=1;deletable=1;editable=1;locked=0;connectable=1;" vertex="1" parent="v5yq_5Lv4ERzmlBER-ph-206">
          <mxGeometry x="160" y="80" width="40" height="40" as="geometry" />
        </mxCell>
        <mxCell id="v5yq_5Lv4ERzmlBER-ph-122" value="OPERADOR" style="rounded=0;whiteSpace=wrap;html=1;fontSize=5;fontStyle=1;fillColor=#d5e8d4;strokeColor=#82b366;strokeWidth=3;container=0;movable=1;resizable=1;rotatable=1;deletable=1;editable=1;locked=0;connectable=1;" vertex="1" parent="v5yq_5Lv4ERzmlBER-ph-206">
          <mxGeometry x="40" y="120" width="40" height="40" as="geometry" />
        </mxCell>
        <mxCell id="v5yq_5Lv4ERzmlBER-ph-123" value="OPERADOR" style="rounded=0;whiteSpace=wrap;html=1;fontSize=5;fontStyle=1;fillColor=#f8cecc;strokeColor=#b85450;strokeWidth=3;container=0;movable=1;resizable=1;rotatable=1;deletable=1;editable=1;locked=0;connectable=1;" vertex="1" parent="v5yq_5Lv4ERzmlBER-ph-206">
          <mxGeometry x="80" y="120" width="40" height="40" as="geometry" />
        </mxCell>
        <mxCell id="v5yq_5Lv4ERzmlBER-ph-124" value="OPERADOR" style="rounded=0;whiteSpace=wrap;html=1;fontSize=5;fontStyle=1;fillColor=#f8cecc;strokeColor=#b85450;strokeWidth=3;container=0;movable=1;resizable=1;rotatable=1;deletable=1;editable=1;locked=0;connectable=1;" vertex="1" parent="v5yq_5Lv4ERzmlBER-ph-206">
          <mxGeometry x="120" y="120" width="40" height="40" as="geometry" />
        </mxCell>
        <mxCell id="v5yq_5Lv4ERzmlBER-ph-125" value="OPERADOR" style="rounded=0;whiteSpace=wrap;html=1;fontSize=5;fontStyle=1;fillColor=#d5e8d4;strokeColor=#82b366;strokeWidth=3;container=0;movable=1;resizable=1;rotatable=1;deletable=1;editable=1;locked=0;connectable=1;" vertex="1" parent="v5yq_5Lv4ERzmlBER-ph-206">
          <mxGeometry x="160" y="120" width="40" height="40" as="geometry" />
        </mxCell>
        <mxCell id="v5yq_5Lv4ERzmlBER-ph-126" value="OPERADOR" style="rounded=0;whiteSpace=wrap;html=1;fontSize=5;fontStyle=1;fillColor=#f8cecc;strokeColor=#b85450;strokeWidth=3;container=0;movable=1;resizable=1;rotatable=1;deletable=1;editable=1;locked=0;connectable=1;" vertex="1" parent="v5yq_5Lv4ERzmlBER-ph-206">
          <mxGeometry x="40" y="160" width="40" height="40" as="geometry" />
        </mxCell>
        <mxCell id="v5yq_5Lv4ERzmlBER-ph-148" value="OPERADOR" style="rounded=0;whiteSpace=wrap;html=1;fontSize=5;fontStyle=1;fillColor=#dae8fc;strokeColor=#6c8ebf;strokeWidth=3;container=0;movable=1;resizable=1;rotatable=1;deletable=1;editable=1;locked=0;connectable=1;" vertex="1" parent="v5yq_5Lv4ERzmlBER-ph-206">
          <mxGeometry x="40" y="40" width="40" height="40" as="geometry" />
        </mxCell>
        <mxCell id="v5yq_5Lv4ERzmlBER-ph-149" value="OPERADOR" style="rounded=0;whiteSpace=wrap;html=1;fontSize=5;fontStyle=1;fillColor=#dae8fc;strokeColor=#6c8ebf;strokeWidth=3;container=0;movable=1;resizable=1;rotatable=1;deletable=1;editable=1;locked=0;connectable=1;" vertex="1" parent="v5yq_5Lv4ERzmlBER-ph-206">
          <mxGeometry x="80" y="40" width="40" height="40" as="geometry" />
        </mxCell>
        <UserObject label="222.252.238.213" link="222.252.238.213" id="v5yq_5Lv4ERzmlBER-ph-103">
          <mxCell style="ellipse;whiteSpace=wrap;html=1;aspect=fixed;fontFamily=Lucida Console;fontSize=7;fontStyle=1" vertex="1" parent="1">
            <mxGeometry x="70" y="360" width="90" height="90" as="geometry" />
          </mxCell>
        </UserObject>
        <mxCell id="v5yq_5Lv4ERzmlBER-ph-105" value="&lt;div style=&quot;font-size: 7px;&quot;&gt;54.27.208.5&lt;/div&gt;" style="ellipse;whiteSpace=wrap;html=1;aspect=fixed;fontFamily=Lucida Console;fontSize=7;fontStyle=1" vertex="1" parent="1">
          <mxGeometry x="374" y="365" width="80" height="80" as="geometry" />
        </mxCell>
        <mxCell id="v5yq_5Lv4ERzmlBER-ph-106" value="238.89.244.13" style="ellipse;whiteSpace=wrap;html=1;aspect=fixed;fontFamily=Lucida Console;fontSize=7;fontStyle=1" vertex="1" parent="1">
          <mxGeometry x="667" y="365" width="80" height="80" as="geometry" />
        </mxCell>
        <mxCell id="v5yq_5Lv4ERzmlBER-ph-111" value="Central de Atendimento II" style="group;verticalAlign=bottom;labelPosition=center;verticalLabelPosition=top;align=center;movable=1;resizable=1;rotatable=1;deletable=1;editable=1;locked=0;connectable=1;" vertex="1" connectable="0" parent="1">
          <mxGeometry x="294" y="80" width="240" height="240" as="geometry" />
        </mxCell>
        <mxCell id="v5yq_5Lv4ERzmlBER-ph-110" value="" style="rounded=0;whiteSpace=wrap;html=1;movable=1;resizable=1;rotatable=1;deletable=1;editable=1;locked=0;connectable=1;" vertex="1" parent="v5yq_5Lv4ERzmlBER-ph-111">
          <mxGeometry width="240" height="240" as="geometry" />
        </mxCell>
        <mxCell id="v5yq_5Lv4ERzmlBER-ph-54" value="OPERADOR" style="rounded=0;whiteSpace=wrap;html=1;fontSize=5;fontStyle=1;strokeWidth=3;strokeColor=#6c8ebf;fillColor=#dae8fc;movable=1;resizable=1;rotatable=1;deletable=1;editable=1;locked=0;connectable=1;" vertex="1" parent="v5yq_5Lv4ERzmlBER-ph-111">
          <mxGeometry x="40" y="40" width="40" height="40" as="geometry" />
        </mxCell>
        <mxCell id="v5yq_5Lv4ERzmlBER-ph-55" value="OPERADOR" style="rounded=0;whiteSpace=wrap;html=1;fontSize=5;fontStyle=1;strokeWidth=3;strokeColor=#82b366;fillColor=#d5e8d4;movable=1;resizable=1;rotatable=1;deletable=1;editable=1;locked=0;connectable=1;" vertex="1" parent="v5yq_5Lv4ERzmlBER-ph-111">
          <mxGeometry x="80" y="40" width="40" height="40" as="geometry" />
        </mxCell>
        <mxCell id="v5yq_5Lv4ERzmlBER-ph-56" value="OPERADOR" style="rounded=0;whiteSpace=wrap;html=1;fontSize=5;fontStyle=1;strokeWidth=3;strokeColor=#6c8ebf;fillColor=#dae8fc;movable=1;resizable=1;rotatable=1;deletable=1;editable=1;locked=0;connectable=1;" vertex="1" parent="v5yq_5Lv4ERzmlBER-ph-111">
          <mxGeometry x="120" y="40" width="40" height="40" as="geometry" />
        </mxCell>
        <mxCell id="v5yq_5Lv4ERzmlBER-ph-57" value="OPERADOR" style="rounded=0;whiteSpace=wrap;html=1;fontSize=5;fontStyle=1;strokeWidth=3;strokeColor=#82b366;fillColor=#d5e8d4;movable=1;resizable=1;rotatable=1;deletable=1;editable=1;locked=0;connectable=1;" vertex="1" parent="v5yq_5Lv4ERzmlBER-ph-111">
          <mxGeometry x="160" y="40" width="40" height="40" as="geometry" />
        </mxCell>
        <mxCell id="v5yq_5Lv4ERzmlBER-ph-58" value="OPERADOR" style="rounded=0;whiteSpace=wrap;html=1;fontSize=5;fontStyle=1;strokeWidth=3;strokeColor=#b85450;fillColor=#f8cecc;movable=1;resizable=1;rotatable=1;deletable=1;editable=1;locked=0;connectable=1;" vertex="1" parent="v5yq_5Lv4ERzmlBER-ph-111">
          <mxGeometry x="40" y="80" width="40" height="40" as="geometry" />
        </mxCell>
        <mxCell id="v5yq_5Lv4ERzmlBER-ph-59" value="OPERADOR" style="rounded=0;whiteSpace=wrap;html=1;fontSize=5;fontStyle=1;strokeWidth=3;strokeColor=#82b366;fillColor=#d5e8d4;movable=1;resizable=1;rotatable=1;deletable=1;editable=1;locked=0;connectable=1;" vertex="1" parent="v5yq_5Lv4ERzmlBER-ph-111">
          <mxGeometry x="80" y="80" width="40" height="40" as="geometry" />
        </mxCell>
        <mxCell id="v5yq_5Lv4ERzmlBER-ph-60" value="OPERADOR" style="rounded=0;whiteSpace=wrap;html=1;fontSize=5;fontStyle=1;strokeWidth=3;strokeColor=#b85450;fillColor=#f8cecc;movable=1;resizable=1;rotatable=1;deletable=1;editable=1;locked=0;connectable=1;" vertex="1" parent="v5yq_5Lv4ERzmlBER-ph-111">
          <mxGeometry x="120" y="80" width="40" height="40" as="geometry" />
        </mxCell>
        <mxCell id="v5yq_5Lv4ERzmlBER-ph-61" value="OPERADOR" style="rounded=0;whiteSpace=wrap;html=1;fontSize=5;fontStyle=1;strokeWidth=3;strokeColor=#82b366;fillColor=#d5e8d4;movable=1;resizable=1;rotatable=1;deletable=1;editable=1;locked=0;connectable=1;" vertex="1" parent="v5yq_5Lv4ERzmlBER-ph-111">
          <mxGeometry x="160" y="80" width="40" height="40" as="geometry" />
        </mxCell>
        <mxCell id="v5yq_5Lv4ERzmlBER-ph-62" value="OPERADOR" style="rounded=0;whiteSpace=wrap;html=1;fontSize=5;fontStyle=1;strokeWidth=3;strokeColor=#6c8ebf;fillColor=#dae8fc;movable=1;resizable=1;rotatable=1;deletable=1;editable=1;locked=0;connectable=1;" vertex="1" parent="v5yq_5Lv4ERzmlBER-ph-111">
          <mxGeometry x="40" y="120" width="40" height="40" as="geometry" />
        </mxCell>
        <mxCell id="v5yq_5Lv4ERzmlBER-ph-130" value="Central de Atendimento III" style="group;labelPosition=center;verticalLabelPosition=top;align=center;verticalAlign=bottom;movable=1;resizable=1;rotatable=1;deletable=1;editable=1;locked=0;connectable=1;" vertex="1" connectable="0" parent="1">
          <mxGeometry x="587" y="80" width="240" height="240" as="geometry" />
        </mxCell>
        <mxCell id="v5yq_5Lv4ERzmlBER-ph-131" value="" style="rounded=0;whiteSpace=wrap;html=1;movable=1;resizable=1;rotatable=1;deletable=1;editable=1;locked=0;connectable=1;" vertex="1" parent="v5yq_5Lv4ERzmlBER-ph-130">
          <mxGeometry width="240" height="240" as="geometry" />
        </mxCell>
        <mxCell id="v5yq_5Lv4ERzmlBER-ph-132" value="OPERADOR" style="rounded=0;whiteSpace=wrap;html=1;fontSize=5;fontStyle=1;fillColor=#f8cecc;strokeColor=#b85450;movable=1;resizable=1;rotatable=1;deletable=1;editable=1;locked=0;connectable=1;" vertex="1" parent="v5yq_5Lv4ERzmlBER-ph-130">
          <mxGeometry x="40" y="40" width="40" height="40" as="geometry" />
        </mxCell>
        <mxCell id="v5yq_5Lv4ERzmlBER-ph-133" value="OPERADOR" style="rounded=0;whiteSpace=wrap;html=1;fontSize=5;fontStyle=1;fillColor=#d5e8d4;strokeColor=#82b366;movable=1;resizable=1;rotatable=1;deletable=1;editable=1;locked=0;connectable=1;" vertex="1" parent="v5yq_5Lv4ERzmlBER-ph-130">
          <mxGeometry x="80" y="40" width="40" height="40" as="geometry" />
        </mxCell>
        <mxCell id="v5yq_5Lv4ERzmlBER-ph-134" value="OPERADOR" style="rounded=0;whiteSpace=wrap;html=1;fontSize=5;fontStyle=1;fillColor=#dae8fc;strokeColor=#6c8ebf;movable=1;resizable=1;rotatable=1;deletable=1;editable=1;locked=0;connectable=1;" vertex="1" parent="v5yq_5Lv4ERzmlBER-ph-130">
          <mxGeometry x="120" y="40" width="40" height="40" as="geometry" />
        </mxCell>
        <mxCell id="v5yq_5Lv4ERzmlBER-ph-135" value="OPERADOR" style="rounded=0;whiteSpace=wrap;html=1;fontSize=5;fontStyle=1;fillColor=#dae8fc;strokeColor=#6c8ebf;movable=1;resizable=1;rotatable=1;deletable=1;editable=1;locked=0;connectable=1;" vertex="1" parent="v5yq_5Lv4ERzmlBER-ph-130">
          <mxGeometry x="160" y="40" width="40" height="40" as="geometry" />
        </mxCell>
        <mxCell id="v5yq_5Lv4ERzmlBER-ph-136" value="OPERADOR" style="rounded=0;whiteSpace=wrap;html=1;fontSize=5;fontStyle=1;fillColor=#d5e8d4;strokeColor=#82b366;movable=1;resizable=1;rotatable=1;deletable=1;editable=1;locked=0;connectable=1;" vertex="1" parent="v5yq_5Lv4ERzmlBER-ph-130">
          <mxGeometry x="40" y="80" width="40" height="40" as="geometry" />
        </mxCell>
        <mxCell id="v5yq_5Lv4ERzmlBER-ph-137" value="OPERADOR" style="rounded=0;whiteSpace=wrap;html=1;fontSize=5;fontStyle=1;fillColor=#f8cecc;strokeColor=#b85450;movable=1;resizable=1;rotatable=1;deletable=1;editable=1;locked=0;connectable=1;" vertex="1" parent="v5yq_5Lv4ERzmlBER-ph-130">
          <mxGeometry x="80" y="80" width="40" height="40" as="geometry" />
        </mxCell>
        <mxCell id="v5yq_5Lv4ERzmlBER-ph-173" value="" style="rounded=0;orthogonalLoop=1;jettySize=auto;html=1;strokeWidth=2;targetPerimeterSpacing=0;fillColor=#dae8fc;strokeColor=#6c8ebf;endSize=10;startSize=0;sourcePerimeterSpacing=0;opacity=80;" edge="1" parent="1" source="v5yq_5Lv4ERzmlBER-ph-148" target="v5yq_5Lv4ERzmlBER-ph-103">
          <mxGeometry relative="1" as="geometry">
            <mxPoint x="60" y="320" as="sourcePoint" />
            <mxPoint x="134" y="410" as="targetPoint" />
          </mxGeometry>
        </mxCell>
        <mxCell id="v5yq_5Lv4ERzmlBER-ph-174" value="" style="rounded=0;orthogonalLoop=1;jettySize=auto;html=1;strokeWidth=2;targetPerimeterSpacing=0;fillColor=#f8cecc;strokeColor=#b85450;endSize=10;startSize=0;sourcePerimeterSpacing=0;opacity=80;" edge="1" parent="1" source="v5yq_5Lv4ERzmlBER-ph-126" target="v5yq_5Lv4ERzmlBER-ph-103">
          <mxGeometry relative="1" as="geometry">
            <mxPoint x="70" y="320" as="sourcePoint" />
            <mxPoint x="144" y="410" as="targetPoint" />
          </mxGeometry>
        </mxCell>
        <mxCell id="v5yq_5Lv4ERzmlBER-ph-175" value="" style="rounded=0;orthogonalLoop=1;jettySize=auto;html=1;strokeWidth=2;targetPerimeterSpacing=0;fillColor=#dae8fc;strokeColor=#6c8ebf;endSize=10;startSize=0;sourcePerimeterSpacing=0;opacity=80;" edge="1" parent="1" source="v5yq_5Lv4ERzmlBER-ph-121" target="v5yq_5Lv4ERzmlBER-ph-103">
          <mxGeometry relative="1" as="geometry">
            <mxPoint x="80" y="320" as="sourcePoint" />
            <mxPoint x="154" y="410" as="targetPoint" />
          </mxGeometry>
        </mxCell>
        <mxCell id="v5yq_5Lv4ERzmlBER-ph-176" value="" style="rounded=0;orthogonalLoop=1;jettySize=auto;html=1;strokeWidth=2;targetPerimeterSpacing=0;fillColor=#dae8fc;strokeColor=#6c8ebf;endSize=10;startSize=0;sourcePerimeterSpacing=0;opacity=80;" edge="1" parent="1" source="v5yq_5Lv4ERzmlBER-ph-118" target="v5yq_5Lv4ERzmlBER-ph-103">
          <mxGeometry relative="1" as="geometry">
            <mxPoint x="90" y="320" as="sourcePoint" />
            <mxPoint x="164" y="410" as="targetPoint" />
          </mxGeometry>
        </mxCell>
        <mxCell id="v5yq_5Lv4ERzmlBER-ph-177" value="" style="rounded=0;orthogonalLoop=1;jettySize=auto;html=1;strokeWidth=2;targetPerimeterSpacing=0;fillColor=#d5e8d4;strokeColor=#82b366;endSize=10;startSize=0;sourcePerimeterSpacing=0;opacity=80;" edge="1" parent="1" source="v5yq_5Lv4ERzmlBER-ph-122" target="v5yq_5Lv4ERzmlBER-ph-103">
          <mxGeometry relative="1" as="geometry">
            <mxPoint x="100" y="320" as="sourcePoint" />
            <mxPoint x="174" y="410" as="targetPoint" />
          </mxGeometry>
        </mxCell>
        <mxCell id="v5yq_5Lv4ERzmlBER-ph-178" value="" style="rounded=0;orthogonalLoop=1;jettySize=auto;html=1;strokeWidth=2;targetPerimeterSpacing=0;fillColor=#dae8fc;strokeColor=#6c8ebf;endSize=10;startSize=0;sourcePerimeterSpacing=0;opacity=80;" edge="1" parent="1" source="v5yq_5Lv4ERzmlBER-ph-149" target="v5yq_5Lv4ERzmlBER-ph-103">
          <mxGeometry relative="1" as="geometry">
            <mxPoint x="110" y="320" as="sourcePoint" />
            <mxPoint x="184" y="410" as="targetPoint" />
          </mxGeometry>
        </mxCell>
        <mxCell id="v5yq_5Lv4ERzmlBER-ph-179" value="" style="rounded=0;orthogonalLoop=1;jettySize=auto;html=1;strokeWidth=2;targetPerimeterSpacing=0;fillColor=#f8cecc;strokeColor=#b85450;endSize=10;startSize=0;sourcePerimeterSpacing=0;opacity=80;" edge="1" parent="1" source="v5yq_5Lv4ERzmlBER-ph-119" target="v5yq_5Lv4ERzmlBER-ph-103">
          <mxGeometry relative="1" as="geometry">
            <mxPoint x="120" y="320" as="sourcePoint" />
            <mxPoint x="194" y="410" as="targetPoint" />
          </mxGeometry>
        </mxCell>
        <mxCell id="v5yq_5Lv4ERzmlBER-ph-180" value="" style="rounded=0;orthogonalLoop=1;jettySize=auto;html=1;strokeWidth=2;targetPerimeterSpacing=0;fillColor=#f8cecc;strokeColor=#b85450;endSize=10;startSize=0;sourcePerimeterSpacing=0;opacity=80;" edge="1" parent="1" source="v5yq_5Lv4ERzmlBER-ph-123" target="v5yq_5Lv4ERzmlBER-ph-103">
          <mxGeometry relative="1" as="geometry">
            <mxPoint x="130" y="320" as="sourcePoint" />
            <mxPoint x="204" y="410" as="targetPoint" />
          </mxGeometry>
        </mxCell>
        <mxCell id="v5yq_5Lv4ERzmlBER-ph-181" value="" style="rounded=0;orthogonalLoop=1;jettySize=auto;html=1;strokeWidth=2;targetPerimeterSpacing=0;fillColor=#d5e8d4;strokeColor=#82b366;endSize=10;startSize=0;sourcePerimeterSpacing=0;opacity=80;" edge="1" parent="1" source="v5yq_5Lv4ERzmlBER-ph-121" target="v5yq_5Lv4ERzmlBER-ph-103">
          <mxGeometry relative="1" as="geometry">
            <mxPoint x="140" y="320" as="sourcePoint" />
            <mxPoint x="214" y="410" as="targetPoint" />
          </mxGeometry>
        </mxCell>
        <mxCell id="v5yq_5Lv4ERzmlBER-ph-182" value="" style="rounded=0;orthogonalLoop=1;jettySize=auto;html=1;strokeWidth=2;targetPerimeterSpacing=0;fillColor=#d5e8d4;strokeColor=#82b366;endSize=10;startSize=0;sourcePerimeterSpacing=0;opacity=80;" edge="1" parent="1" source="v5yq_5Lv4ERzmlBER-ph-120" target="v5yq_5Lv4ERzmlBER-ph-103">
          <mxGeometry relative="1" as="geometry">
            <mxPoint x="150" y="320" as="sourcePoint" />
            <mxPoint x="224" y="410" as="targetPoint" />
          </mxGeometry>
        </mxCell>
        <mxCell id="v5yq_5Lv4ERzmlBER-ph-183" value="" style="rounded=0;orthogonalLoop=1;jettySize=auto;html=1;strokeWidth=2;targetPerimeterSpacing=0;fillColor=#f8cecc;strokeColor=#b85450;endSize=10;startSize=0;sourcePerimeterSpacing=0;opacity=80;" edge="1" parent="1" source="v5yq_5Lv4ERzmlBER-ph-124" target="v5yq_5Lv4ERzmlBER-ph-103">
          <mxGeometry relative="1" as="geometry">
            <mxPoint x="160" y="320" as="sourcePoint" />
            <mxPoint x="234" y="410" as="targetPoint" />
          </mxGeometry>
        </mxCell>
        <mxCell id="v5yq_5Lv4ERzmlBER-ph-184" value="" style="rounded=0;orthogonalLoop=1;jettySize=auto;html=1;strokeWidth=2;targetPerimeterSpacing=0;fillColor=#d5e8d4;strokeColor=#82b366;endSize=10;startSize=0;sourcePerimeterSpacing=0;opacity=80;" edge="1" parent="1" source="v5yq_5Lv4ERzmlBER-ph-117" target="v5yq_5Lv4ERzmlBER-ph-103">
          <mxGeometry relative="1" as="geometry">
            <mxPoint x="170" y="320" as="sourcePoint" />
            <mxPoint x="244" y="410" as="targetPoint" />
          </mxGeometry>
        </mxCell>
        <mxCell id="v5yq_5Lv4ERzmlBER-ph-185" value="" style="rounded=0;orthogonalLoop=1;jettySize=auto;html=1;strokeWidth=2;targetPerimeterSpacing=0;fillColor=#dae8fc;strokeColor=#6c8ebf;endSize=10;startSize=0;sourcePerimeterSpacing=0;opacity=80;" edge="1" parent="1" source="v5yq_5Lv4ERzmlBER-ph-116" target="v5yq_5Lv4ERzmlBER-ph-103">
          <mxGeometry relative="1" as="geometry">
            <mxPoint x="180" y="320" as="sourcePoint" />
            <mxPoint x="254" y="410" as="targetPoint" />
          </mxGeometry>
        </mxCell>
        <mxCell id="v5yq_5Lv4ERzmlBER-ph-188" value="" style="endArrow=classic;html=1;rounded=0;fillColor=#f8cecc;strokeColor=#b85450;endSize=10;startSize=0;opacity=80;strokeWidth=2;" edge="1" parent="1" source="v5yq_5Lv4ERzmlBER-ph-58" target="v5yq_5Lv4ERzmlBER-ph-105">
          <mxGeometry width="50" height="50" relative="1" as="geometry">
            <mxPoint x="390" y="320" as="sourcePoint" />
            <mxPoint x="390" y="400" as="targetPoint" />
          </mxGeometry>
        </mxCell>
        <mxCell id="v5yq_5Lv4ERzmlBER-ph-189" value="" style="endArrow=classic;html=1;rounded=0;fillColor=#d5e8d4;strokeColor=#82b366;endSize=10;startSize=0;opacity=80;strokeWidth=2;" edge="1" parent="1" source="v5yq_5Lv4ERzmlBER-ph-55" target="v5yq_5Lv4ERzmlBER-ph-105">
          <mxGeometry width="50" height="50" relative="1" as="geometry">
            <mxPoint x="411" y="320" as="sourcePoint" />
            <mxPoint x="411" y="400" as="targetPoint" />
          </mxGeometry>
        </mxCell>
        <mxCell id="v5yq_5Lv4ERzmlBER-ph-190" value="" style="endArrow=classic;html=1;rounded=0;fillColor=#d5e8d4;strokeColor=#82b366;endSize=10;startSize=0;opacity=80;strokeWidth=2;" edge="1" parent="1" source="v5yq_5Lv4ERzmlBER-ph-59" target="v5yq_5Lv4ERzmlBER-ph-105">
          <mxGeometry width="50" height="50" relative="1" as="geometry">
            <mxPoint x="420" y="320" as="sourcePoint" />
            <mxPoint x="420" y="400" as="targetPoint" />
          </mxGeometry>
        </mxCell>
        <mxCell id="v5yq_5Lv4ERzmlBER-ph-191" value="" style="endArrow=classic;html=1;rounded=0;fillColor=#dae8fc;strokeColor=#6c8ebf;endSize=10;startSize=0;opacity=80;strokeWidth=2;" edge="1" parent="1" source="v5yq_5Lv4ERzmlBER-ph-56" target="v5yq_5Lv4ERzmlBER-ph-105">
          <mxGeometry width="50" height="50" relative="1" as="geometry">
            <mxPoint x="430" y="320" as="sourcePoint" />
            <mxPoint x="430" y="400" as="targetPoint" />
          </mxGeometry>
        </mxCell>
        <mxCell id="v5yq_5Lv4ERzmlBER-ph-192" value="" style="endArrow=classic;html=1;rounded=0;fillColor=#f8cecc;strokeColor=#b85450;endSize=10;startSize=0;opacity=80;strokeWidth=2;" edge="1" parent="1" source="v5yq_5Lv4ERzmlBER-ph-60" target="v5yq_5Lv4ERzmlBER-ph-105">
          <mxGeometry width="50" height="50" relative="1" as="geometry">
            <mxPoint x="440" y="320" as="sourcePoint" />
            <mxPoint x="440" y="400" as="targetPoint" />
          </mxGeometry>
        </mxCell>
        <mxCell id="v5yq_5Lv4ERzmlBER-ph-193" value="" style="endArrow=classic;html=1;rounded=0;fillColor=#d5e8d4;strokeColor=#82b366;endSize=10;startSize=0;opacity=80;strokeWidth=2;" edge="1" parent="1" source="v5yq_5Lv4ERzmlBER-ph-57" target="v5yq_5Lv4ERzmlBER-ph-105">
          <mxGeometry width="50" height="50" relative="1" as="geometry">
            <mxPoint x="450" y="320" as="sourcePoint" />
            <mxPoint x="450" y="400" as="targetPoint" />
          </mxGeometry>
        </mxCell>
        <mxCell id="v5yq_5Lv4ERzmlBER-ph-194" value="" style="endArrow=classic;html=1;rounded=0;fillColor=#dae8fc;strokeColor=#6c8ebf;endSize=10;startSize=0;opacity=80;strokeWidth=2;" edge="1" parent="1" source="v5yq_5Lv4ERzmlBER-ph-62" target="v5yq_5Lv4ERzmlBER-ph-105">
          <mxGeometry width="50" height="50" relative="1" as="geometry">
            <mxPoint x="380" y="320" as="sourcePoint" />
            <mxPoint x="380" y="400" as="targetPoint" />
          </mxGeometry>
        </mxCell>
        <mxCell id="v5yq_5Lv4ERzmlBER-ph-195" value="" style="endArrow=classic;html=1;rounded=0;fillColor=#dae8fc;strokeColor=#6c8ebf;endSize=10;startSize=0;opacity=80;strokeWidth=2;" edge="1" parent="1" source="v5yq_5Lv4ERzmlBER-ph-54" target="v5yq_5Lv4ERzmlBER-ph-105">
          <mxGeometry width="50" height="50" relative="1" as="geometry">
            <mxPoint x="400" y="320" as="sourcePoint" />
            <mxPoint x="400" y="400" as="targetPoint" />
          </mxGeometry>
        </mxCell>
        <mxCell id="v5yq_5Lv4ERzmlBER-ph-196" value="" style="endArrow=classic;html=1;rounded=0;fillColor=#d5e8d4;strokeColor=#82b366;endSize=10;startSize=0;opacity=80;strokeWidth=2;" edge="1" parent="1" source="v5yq_5Lv4ERzmlBER-ph-61" target="v5yq_5Lv4ERzmlBER-ph-105">
          <mxGeometry width="50" height="50" relative="1" as="geometry">
            <mxPoint x="460" y="320" as="sourcePoint" />
            <mxPoint x="460" y="400" as="targetPoint" />
          </mxGeometry>
        </mxCell>
        <mxCell id="v5yq_5Lv4ERzmlBER-ph-199" style="rounded=0;orthogonalLoop=1;jettySize=auto;html=1;fillColor=#f8cecc;strokeColor=#b85450;strokeWidth=2;endSize=10;startSize=0;" edge="1" parent="1" source="v5yq_5Lv4ERzmlBER-ph-132" target="v5yq_5Lv4ERzmlBER-ph-106">
          <mxGeometry relative="1" as="geometry" />
        </mxCell>
        <mxCell id="v5yq_5Lv4ERzmlBER-ph-200" style="rounded=0;orthogonalLoop=1;jettySize=auto;html=1;fillColor=#d5e8d4;strokeColor=#82b366;strokeWidth=2;endSize=10;startSize=0;" edge="1" parent="1" source="v5yq_5Lv4ERzmlBER-ph-136" target="v5yq_5Lv4ERzmlBER-ph-106">
          <mxGeometry relative="1" as="geometry" />
        </mxCell>
        <mxCell id="v5yq_5Lv4ERzmlBER-ph-201" style="rounded=0;orthogonalLoop=1;jettySize=auto;html=1;fillColor=#f8cecc;strokeColor=#b85450;strokeWidth=2;endSize=10;startSize=0;" edge="1" parent="1" source="v5yq_5Lv4ERzmlBER-ph-137" target="v5yq_5Lv4ERzmlBER-ph-106">
          <mxGeometry relative="1" as="geometry" />
        </mxCell>
        <mxCell id="v5yq_5Lv4ERzmlBER-ph-202" style="rounded=0;orthogonalLoop=1;jettySize=auto;html=1;fillColor=#d5e8d4;strokeColor=#82b366;strokeWidth=2;endSize=10;startSize=0;" edge="1" parent="1" source="v5yq_5Lv4ERzmlBER-ph-133" target="v5yq_5Lv4ERzmlBER-ph-106">
          <mxGeometry relative="1" as="geometry" />
        </mxCell>
        <mxCell id="v5yq_5Lv4ERzmlBER-ph-203" style="rounded=0;orthogonalLoop=1;jettySize=auto;html=1;fillColor=#dae8fc;strokeColor=#6c8ebf;strokeWidth=2;endSize=10;startSize=0;" edge="1" parent="1" source="v5yq_5Lv4ERzmlBER-ph-134" target="v5yq_5Lv4ERzmlBER-ph-106">
          <mxGeometry relative="1" as="geometry" />
        </mxCell>
        <mxCell id="v5yq_5Lv4ERzmlBER-ph-204" style="rounded=0;orthogonalLoop=1;jettySize=auto;html=1;fillColor=#dae8fc;strokeColor=#6c8ebf;strokeWidth=2;endSize=10;startSize=0;" edge="1" parent="1" source="v5yq_5Lv4ERzmlBER-ph-135" target="v5yq_5Lv4ERzmlBER-ph-106">
          <mxGeometry relative="1" as="geometry" />
        </mxCell>
        <mxCell id="v5yq_5Lv4ERzmlBER-ph-207" style="rounded=0;orthogonalLoop=1;jettySize=auto;html=1;strokeWidth=2;endSize=10;startSize=0;fillColor=#d5e8d4;strokeColor=#82b366;" edge="1" parent="1" source="v5yq_5Lv4ERzmlBER-ph-125" target="v5yq_5Lv4ERzmlBER-ph-103">
          <mxGeometry relative="1" as="geometry" />
        </mxCell>
      </root>
    </mxGraphModel>
  </diagram>
</mxfile>
